<svg width="512" height="512" viewBox="0 0 512 512" xmlns="http://www.w3.org/2000/svg">
  <defs>
    <linearGradient id="gradient" x1="0%" y1="0%" x2="100%" y2="100%">
      <stop offset="0%" style="stop-color:#FF69B4;stop-opacity:1" />
      <stop offset="100%" style="stop-color:#FF1493;stop-opacity:1" />
    </linearGradient>
  </defs>
  <rect width="512" height="512" rx="80" ry="80" fill="url(#gradient)"/>
  <path d="M256 420c-8-7-15-13-21-18-35-28-63-50-84-68-21-18-37-34-47-48-10-14-17-27-21-38-4-11-6-21-6-30 0-25 9-46 28-63 19-17 43-25 71-25 15 0 29 3 42 8 13 5 24 12 33 21 9-9 20-16 33-21 13-5 27-8 42-8 28 0 52 8 71 25 19 17 28 38 28 63 0 9-2 19-6 30-4 11-11 24-21 38-10 14-26 30-47 48-21 18-49 40-84 68-6 5-13 11-21 18z" fill="white"/>
</svg>











